<svg width="160" height="44" viewBox="0 0 160 44" fill="none" xmlns="http://www.w3.org/2000/svg">
<path d="M31.0905 26.5546C25.6527 16.7518 13.421 17.4191 10.5653 14.1987C8.87168 12.2898 8.56128 9.98506 8.78438 7.92867C8.97062 6.22147 9.5274 4.68305 9.96778 3.67813C10.6002 3.21835 11.2579 2.79155 11.9427 2.40161C12.0378 2.74111 12.1483 3.07479 12.2822 3.40071C12.4529 3.82557 12.7012 4.23685 13.0155 4.64619C14.0748 6.02553 15.8925 7.36801 18.0615 8.97044C20.2381 10.5806 22.7543 12.4411 25.0028 14.773C27.8914 17.7625 30.3436 21.5339 31.0905 26.5546Z" fill="#66A589"/>
<path d="M43.2247 27.647C41.7348 32.4912 38.5512 36.7242 34.1766 39.4829C34.3007 34.8502 33.6275 30.8771 32.1784 27.6586C31.2588 17.5454 23.9566 12.1483 18.6217 8.20433C16.0376 6.29343 13.8085 4.64444 13.1586 3.04394C13.0752 2.83636 12.9995 2.62296 12.9336 2.40568C12.9316 2.40374 12.9316 2.4018 12.9316 2.4018C13.4671 2.1205 14.0161 1.86636 14.5768 1.6355C14.5768 1.6355 14.5768 1.6355 14.5787 1.63744C15.6961 2.84994 19.1008 5.86275 26.4166 7.43997C27.7707 7.73291 29.1209 8.19269 30.4285 8.79797C33.8235 10.3655 36.9449 12.9049 39.1818 15.9818C39.4204 16.3038 39.6454 16.6336 39.8588 16.9673C41.9055 20.147 43.0346 23.7651 43.2247 27.647Z" fill="#41705B"/>
<path d="M44.1706 21.3845C44.1706 22.5562 44.0736 23.7164 43.8854 24.8571C43.3868 21.8404 42.3082 19.0138 40.6611 16.4549C37.4291 11.4245 32.1795 7.7075 26.6156 6.50858C20.1243 5.11372 16.8186 2.51219 15.5537 1.26477C15.5517 1.26283 15.5498 1.26283 15.5498 1.26283C16.5082 0.91945 17.4917 0.64203 18.4889 0.43833C19.8993 0.149271 21.3407 0.00183105 22.7879 0.00183105C22.883 0.00183105 22.9761 0.00183147 23.0712 0.00377147C30.3345 0.0988313 36.7365 3.83333 40.5312 9.46514C42.8301 12.8737 44.1706 16.9749 44.1706 21.3845Z" fill="#66A589"/>
<path d="M8.31483 30.7413C10.7166 34.5223 13.0252 38.1618 12.9243 41.3375C5.30784 37.9231 0 30.2718 0 21.3827C0 14.9477 2.77808 9.16655 7.20128 5.16821C5.16234 8.41965 2.18638 14.4686 3.37948 20.6475C4.01968 23.9746 6.20411 27.4122 8.31483 30.7413Z" fill="#66A589"/>
<path d="M29.3484 27.6469C28.7567 28.4694 28.0564 29.2144 27.3172 29.9167C26.5742 30.617 25.7769 31.2533 24.964 31.8741C24.5683 32.1768 24.1647 32.4658 23.7554 32.7471C24.8709 33.979 27.3017 38.3984 26.2658 42.7983C26.0116 42.8487 25.7575 42.8992 25.4995 42.9399C24.3141 43.1378 23.0977 43.2425 21.8561 43.2425C19.0373 43.2425 16.3427 42.709 13.8672 41.7352C14.1505 38.1597 11.6052 34.1478 9.12005 30.2329C7.0559 26.9815 4.9219 23.6175 4.31468 20.4708C3.07502 14.0727 6.71058 7.61253 8.59626 4.79565C7.77758 7.10037 7.07918 10.7068 9.15885 13.6071C9.20347 13.8904 9.25779 14.1872 9.31599 14.4956C9.43045 15.0699 9.50417 15.5937 9.54491 16.0767C9.49835 16.1058 9.44791 16.1349 9.39553 16.1602C9.27913 16.2203 9.14915 16.2649 9.01917 16.3018C8.75339 16.3755 8.46821 16.4046 8.18303 16.3988C7.89397 16.3988 7.60491 16.3464 7.31585 16.2863C7.17229 16.2494 7.03067 16.2067 6.88711 16.166L6.4642 16.0147L6.85995 16.2339C6.99575 16.296 7.13156 16.3639 7.27124 16.424C7.55448 16.5346 7.84547 16.6374 8.15393 16.6898C8.45851 16.746 8.77667 16.7713 9.10065 16.7363C9.25973 16.7169 9.42075 16.6898 9.57983 16.6393C9.68265 19.4989 8.52253 20.7502 7.33138 22.2867V22.2886C6.12858 23.8387 8.07633 24.5157 9.02111 25.0745C9.21899 25.1909 9.37225 25.3014 9.44597 25.4159C9.57207 25.6118 9.62251 25.7884 9.63997 25.9552C9.68071 26.3413 9.53327 26.6497 9.71563 26.9194C9.91933 27.222 10.5207 27.3908 10.802 27.4936C10.8816 27.5227 10.9339 27.546 10.9456 27.5654C10.9533 27.579 10.9417 27.6003 10.9126 27.6314C10.7691 27.7924 10.2006 28.1804 10.352 28.6964C10.5304 29.3095 11.4578 29.3502 11.6847 29.3463C11.9059 29.3405 12.3657 29.9632 12.5131 31.6821C12.6547 33.3214 13.3182 34.6988 15.8111 34.4505C15.9314 34.4408 16.0594 34.4252 16.1875 34.4058C17.2874 34.239 18.5096 33.8646 19.6348 33.4863C20.372 33.1933 21.1131 32.8655 21.8406 32.5299C22.7408 32.1069 23.639 31.6646 24.5081 31.1757C25.3792 30.6849 26.2386 30.1728 27.0534 29.5927C27.8663 29.0107 28.6481 28.3821 29.3484 27.6469Z" fill="#41705B"/>
<path opacity="0.2" d="M31.0905 26.5549C25.6527 16.7521 13.421 17.4194 10.5653 14.199C8.87168 12.2901 8.56128 9.98535 8.78438 7.92896C9.06374 10.0824 10.2898 13.7819 15.3261 14.7248C22.5487 16.0808 26.613 18.9404 28.9701 22.3005C28.9701 22.3005 28.5568 19.8231 25.0028 14.7713C27.8914 17.7628 30.3436 21.5342 31.0905 26.5549Z" fill="#66A589"/>
<path opacity="0.2" d="M43.2247 27.6466C41.7348 32.4908 38.5513 36.7238 34.1766 39.4825C34.3007 34.8498 33.6276 30.8767 32.1784 27.6582C31.2588 17.545 23.9567 12.1479 18.6217 8.20393C16.0376 6.29303 13.8085 4.64403 13.1586 3.04353C13.0752 2.83595 12.9996 2.62255 12.9336 2.40527C13.017 2.53331 15.6942 6.65387 23.2505 10.0605C30.9251 13.5234 35.942 27.7184 35.3891 33.9904C35.3891 33.9904 38.0488 30.3141 34.9894 21.5938C35.1058 21.749 39.2865 27.4429 38.1982 32.7352C38.1982 32.7352 41.7057 30.7312 41.6087 25.4117C41.5447 21.7762 40.0936 18.0067 39.1798 15.9794C39.4184 16.3015 39.6435 16.6313 39.8569 16.965C41.9055 20.1466 43.0346 23.7647 43.2247 27.6466Z" fill="#66A589"/>
<path opacity="0.2" d="M44.1696 21.3846C44.1696 22.5564 44.0726 23.7165 43.8845 24.8572C43.3859 21.8405 42.3072 19.0139 40.6602 16.4551C37.4282 11.4247 32.1785 7.70762 26.6146 6.50871C20.1234 5.11385 16.8176 2.51231 15.5527 1.26489C15.6924 1.36189 20.199 4.42321 27.1481 5.17205C34.2039 5.93253 40.2431 12.158 42.1967 16.3348C42.1967 16.3348 41.861 12.8641 40.5302 9.46526C42.8291 12.8738 44.1696 16.975 44.1696 21.3846Z" fill="#66A589"/>
<path opacity="0.2" d="M25.4975 42.9376C24.3122 43.1355 23.0958 43.2402 21.8542 43.2402C19.0354 43.2402 16.3407 42.7067 13.8653 41.7328C14.1485 38.1574 11.6032 34.1455 9.1181 30.2306C7.05394 26.9791 4.91994 23.6152 4.31272 20.4685C3.07307 14.0704 6.70862 7.61021 8.5943 4.79333C8.48566 5.01643 3.78504 14.9085 7.32942 22.2844V22.2863C6.12662 23.8364 8.07438 24.5134 9.01916 25.0721C9.22674 25.3767 9.43432 25.6696 9.63802 25.9529C9.67876 26.3389 9.53132 26.6474 9.71368 26.9171C9.91738 27.2197 10.5188 27.3885 10.8001 27.4913C10.8369 27.5379 10.8719 27.5864 10.9107 27.631C10.7671 27.792 10.1987 28.18 10.35 28.696C10.5285 29.3091 11.4558 29.3498 11.6828 29.3459C11.9039 29.3401 12.3637 29.9629 12.5112 31.6817C12.6528 33.321 13.3163 34.6984 15.8091 34.4501C16.5754 36.0855 17.0973 38.0119 17.2816 40.6115C17.2816 40.6115 19.757 38.8733 18.6202 35.9963C18.6202 35.9963 20.4923 38.6715 21.2295 40.6115C21.8813 42.3342 23.5129 43.1743 25.4975 42.9376Z" fill="#66A589"/>
<path opacity="0.2" d="M23.9038 16.1306C21.019 12.4369 16.4445 12.854 13.2338 9.81011C10.0231 6.76625 11.9418 2.4032 11.9418 2.4032C12.0369 2.7427 12.1474 3.07638 12.2813 3.4023C12.452 3.82716 12.7003 4.23844 13.0146 4.64778C13.3929 7.33079 15.4435 9.70923 19.2226 11.3834C23.9038 13.4554 23.9038 16.1306 23.9038 16.1306Z" fill="black"/>
<path opacity="0.2" d="M38.9047 26.5545C38.3518 17.4637 28.5684 9.40884 22.3003 7.45138C16.1272 5.5269 14.6257 1.75555 14.5811 1.63721C15.6985 2.84971 19.1032 5.86252 26.4189 7.43974C27.773 7.73268 29.1233 8.19246 30.4308 8.79774C39.316 15.838 38.9047 26.5545 38.9047 26.5545Z" fill="black"/>
<path opacity="0.2" d="M36.0414 6.90057C32.7298 3.06326 28.5181 3.51528 23.9048 2.66168C20.9851 2.12042 19.3186 1.10968 18.4902 0.4365C19.9006 0.14744 21.342 0 22.7893 0C22.8843 0 22.9774 4.14472e-07 23.0725 0.00194041C24.2831 1.20862 27.292 2.02924 30.7277 2.91194C34.5786 3.8994 35.9987 6.80939 36.0414 6.90057Z" fill="black"/>
<path d="M76.123 29.9962C76.123 30.1108 76.1074 30.2306 76.0762 30.3556C76.0553 30.4806 75.998 30.5848 75.9043 30.6681C75.4355 31.0223 74.9251 31.3504 74.373 31.6525C73.8314 31.9441 73.2428 32.1993 72.6074 32.4181C71.972 32.6368 71.2845 32.8035 70.5449 32.9181C69.8158 33.0431 69.0293 33.1056 68.1855 33.1056C66.2897 33.1056 64.5605 32.8295 62.998 32.2775C61.4355 31.715 60.0918 30.9233 58.9668 29.9025C57.8522 28.8816 56.9876 27.6577 56.373 26.2306C55.7585 24.7931 55.4512 23.1993 55.4512 21.4493C55.4512 20.4598 55.5762 19.4858 55.8262 18.5275C56.0866 17.5691 56.4616 16.6577 56.9512 15.7931C57.4408 14.9285 58.0449 14.1368 58.7637 13.4181C59.4824 12.6889 60.3001 12.0587 61.2168 11.5275C62.1439 10.9962 63.1595 10.5848 64.2637 10.2931C65.3783 9.99101 66.5814 9.83997 67.873 9.83997C68.373 9.83997 68.8835 9.86601 69.4043 9.91809C69.9251 9.95976 70.4408 10.0275 70.9512 10.1212C71.4616 10.2045 71.9512 10.3087 72.4199 10.4337C72.8991 10.5587 73.3522 10.6993 73.7793 10.8556L74.8418 13.7462L74.7168 13.8087C74.3105 13.4441 73.8418 13.1056 73.3105 12.7931C72.7793 12.4806 72.2116 12.2098 71.6074 11.9806C71.0033 11.7514 70.3678 11.5743 69.7012 11.4493C69.0449 11.3139 68.3783 11.2462 67.7012 11.2462C66.3887 11.2462 65.1855 11.4545 64.0918 11.8712C62.998 12.2775 62.0553 12.8712 61.2637 13.6525C60.4824 14.4337 59.873 15.392 59.4355 16.5275C58.998 17.6629 58.7793 18.9545 58.7793 20.4025C58.7793 21.9962 58.9876 23.4754 59.4043 24.84C59.821 26.2045 60.4408 27.3868 61.2637 28.3868C62.0866 29.3868 63.1126 30.1733 64.3418 30.7462C65.5814 31.3087 67.0241 31.59 68.6699 31.59C69.3991 31.59 70.0501 31.5327 70.623 31.4181C71.196 31.3035 71.6803 31.1629 72.0762 30.9962C72.472 30.8191 72.7689 30.6316 72.9668 30.4337C73.1751 30.2254 73.2793 30.0379 73.2793 29.8712V29.2618C73.2793 28.5327 73.2689 27.9025 73.248 27.3712C73.2272 26.84 73.196 26.3816 73.1543 25.9962C73.1126 25.6004 73.0658 25.2618 73.0137 24.9806C72.9616 24.6993 72.8991 24.4389 72.8262 24.1993V24.1368H76.5762V24.1993C76.5137 24.4181 76.4512 24.6785 76.3887 24.9806C76.3366 25.2723 76.2897 25.6212 76.248 26.0275C76.2064 26.4337 76.1751 26.9129 76.1543 27.465C76.1335 28.0066 76.123 28.6368 76.123 29.3556V29.9962ZM80.4199 15.3712C80.4199 14.4858 80.4043 13.715 80.373 13.0587C80.3522 12.392 80.321 11.8191 80.2793 11.34C80.248 10.8608 80.2012 10.4598 80.1387 10.1368C80.0866 9.81392 80.0293 9.54309 79.9668 9.32434V9.26184H83.5762V9.32434C83.5137 9.54309 83.4564 9.81392 83.4043 10.1368C83.3522 10.4598 83.3053 10.8608 83.2637 11.34C83.222 11.8191 83.1908 12.392 83.1699 13.0587C83.1491 13.715 83.1387 14.4858 83.1387 15.3712V26.5118C83.1387 27.3973 83.1491 28.1733 83.1699 28.84C83.1908 29.4962 83.222 30.0639 83.2637 30.5431C83.3053 31.0223 83.3522 31.4233 83.4043 31.7462C83.4564 32.0691 83.5137 32.34 83.5762 32.5587V32.6212H79.9668V32.5587C80.0293 32.34 80.0866 32.0691 80.1387 31.7462C80.2012 31.4233 80.248 31.0223 80.2793 30.5431C80.321 30.0639 80.3522 29.4962 80.373 28.84C80.4043 28.1733 80.4199 27.3973 80.4199 26.5118V15.3712ZM86.7324 24.59C86.7324 23.4129 86.9512 22.3243 87.3887 21.3243C87.8262 20.3139 88.4251 19.4389 89.1855 18.6993C89.9564 17.9598 90.8626 17.3816 91.9043 16.965C92.946 16.5483 94.0658 16.34 95.2637 16.34C96.4408 16.34 97.5449 16.5379 98.5762 16.9337C99.6178 17.3191 100.524 17.8712 101.295 18.59C102.066 19.3087 102.67 20.1837 103.107 21.215C103.555 22.2462 103.779 23.4025 103.779 24.6837C103.779 25.7566 103.592 26.7879 103.217 27.7775C102.842 28.767 102.29 29.642 101.561 30.4025C100.831 31.1629 99.9355 31.7723 98.873 32.2306C97.821 32.6785 96.6074 32.9025 95.2324 32.9025C94.0658 32.9025 92.9668 32.7098 91.9355 32.3243C90.9043 31.9389 90.0033 31.3868 89.2324 30.6681C88.4616 29.9493 87.8522 29.0795 87.4043 28.0587C86.9564 27.0275 86.7324 25.8712 86.7324 24.59ZM95.5918 31.7618C96.3314 31.7618 97.0085 31.616 97.623 31.3243C98.248 31.0327 98.7845 30.6108 99.2324 30.0587C99.6803 29.5066 100.029 28.8348 100.279 28.0431C100.529 27.2514 100.654 26.3556 100.654 25.3556C100.654 24.2306 100.535 23.1889 100.295 22.2306C100.055 21.2618 99.696 20.4285 99.2168 19.7306C98.748 19.0223 98.1543 18.4702 97.4355 18.0743C96.7168 17.6785 95.8783 17.4806 94.9199 17.4806C94.1803 17.4806 93.5033 17.6264 92.8887 17.9181C92.2741 18.1993 91.7376 18.6108 91.2793 19.1525C90.8314 19.6941 90.4824 20.3608 90.2324 21.1525C89.9824 21.9337 89.8574 22.8243 89.8574 23.8243C89.8574 24.9493 89.9772 25.9962 90.2168 26.965C90.4668 27.9337 90.8314 28.7775 91.3105 29.4962C91.7897 30.2045 92.3835 30.7618 93.0918 31.1681C93.8105 31.5639 94.6439 31.7618 95.5918 31.7618ZM117.842 18.0587L122.014 28.5587L125.498 19.8556C125.571 19.6681 125.654 19.4598 125.748 19.2306C125.842 18.991 125.925 18.7514 125.998 18.5118C126.071 18.2618 126.133 18.0275 126.186 17.8087C126.238 17.5795 126.264 17.3764 126.264 17.1993C126.264 17.0639 126.253 16.9545 126.232 16.8712C126.212 16.7775 126.191 16.715 126.17 16.6837V16.6212H128.982V16.6837C128.795 16.8816 128.566 17.2098 128.295 17.6681C128.035 18.116 127.722 18.7723 127.357 19.6368L121.811 32.84H120.92L116.889 23.0587L112.857 32.84H111.967L106.842 20.4025C106.654 19.9441 106.451 19.5066 106.232 19.09C106.024 18.6629 105.821 18.2827 105.623 17.9493C105.436 17.616 105.269 17.34 105.123 17.1212C104.977 16.892 104.878 16.7462 104.826 16.6837V16.6212H108.982V16.6837C108.962 16.7358 108.946 16.8139 108.936 16.9181C108.925 17.0223 108.92 17.116 108.92 17.1993C108.92 17.5223 108.967 17.8816 109.061 18.2775C109.165 18.6629 109.331 19.1473 109.561 19.7306L113.045 28.5587L117.248 18.0587H117.842ZM138.326 32.9025C137.17 32.9025 136.087 32.7202 135.076 32.3556C134.066 31.991 133.186 31.4598 132.436 30.7618C131.686 30.0535 131.092 29.1837 130.654 28.1525C130.227 27.1108 130.014 25.9233 130.014 24.59C130.014 23.4129 130.212 22.3243 130.607 21.3243C131.003 20.3139 131.55 19.4389 132.248 18.6993C132.946 17.9598 133.758 17.3816 134.686 16.965C135.623 16.5483 136.633 16.34 137.717 16.34C138.79 16.34 139.785 16.5275 140.701 16.9025C141.618 17.267 142.41 17.8035 143.076 18.5118C143.753 19.2098 144.285 20.0795 144.67 21.1212C145.066 22.1525 145.279 23.3295 145.311 24.6525C144.133 24.6316 142.956 24.616 141.779 24.6056C140.602 24.5952 139.378 24.59 138.107 24.59C137.201 24.59 136.316 24.5952 135.451 24.6056C134.597 24.616 133.826 24.6316 133.139 24.6525C133.201 25.7358 133.368 26.715 133.639 27.59C133.92 28.465 134.3 29.215 134.779 29.84C135.269 30.4545 135.857 30.9285 136.545 31.2618C137.243 31.5952 138.029 31.7618 138.904 31.7618C139.508 31.7618 140.076 31.6941 140.607 31.5587C141.149 31.4129 141.639 31.215 142.076 30.965C142.514 30.715 142.904 30.4233 143.248 30.09C143.592 29.7462 143.883 29.3764 144.123 28.9806L144.311 29.0743L143.154 31.8556C142.592 32.1473 141.92 32.3973 141.139 32.6056C140.357 32.8035 139.42 32.9025 138.326 32.9025ZM136.248 23.3712C137.29 23.3712 138.331 23.3712 139.373 23.3712C140.425 23.3608 141.378 23.34 142.232 23.3087C142.139 22.4025 141.962 21.59 141.701 20.8712C141.441 20.1525 141.107 19.5431 140.701 19.0431C140.295 18.5431 139.816 18.1577 139.264 17.8868C138.712 17.616 138.102 17.4806 137.436 17.4806C136.831 17.4806 136.274 17.616 135.764 17.8868C135.264 18.1473 134.826 18.5275 134.451 19.0275C134.076 19.5275 133.774 20.142 133.545 20.8712C133.316 21.59 133.18 22.4129 133.139 23.34C133.607 23.3608 134.102 23.3712 134.623 23.3712C135.144 23.3712 135.686 23.3712 136.248 23.3712ZM148.67 22.7306C148.67 21.8452 148.654 21.0743 148.623 20.4181C148.602 19.7514 148.571 19.1785 148.529 18.6993C148.498 18.2202 148.451 17.8191 148.389 17.4962C148.337 17.1733 148.279 16.9025 148.217 16.6837V16.6212H151.826V16.6837C151.743 16.9233 151.67 17.215 151.607 17.5587C151.555 17.9025 151.514 18.3452 151.482 18.8868C151.868 18.5639 152.269 18.2462 152.686 17.9337C153.102 17.6212 153.529 17.3452 153.967 17.1056C154.404 16.866 154.847 16.6733 155.295 16.5275C155.753 16.3816 156.212 16.3087 156.67 16.3087C156.951 16.3087 157.196 16.3243 157.404 16.3556C157.613 16.3764 157.8 16.4129 157.967 16.465C158.133 16.5066 158.285 16.5587 158.42 16.6212C158.555 16.6733 158.686 16.7254 158.811 16.7775L158.045 19.7618L157.779 19.6993C157.654 19.241 157.42 18.8764 157.076 18.6056C156.732 18.3243 156.264 18.1837 155.67 18.1837C155.347 18.1837 155.008 18.241 154.654 18.3556C154.3 18.4702 153.941 18.6316 153.576 18.84C153.212 19.0379 152.847 19.2723 152.482 19.5431C152.118 19.8035 151.764 20.0795 151.42 20.3712C151.399 20.6733 151.389 21.0014 151.389 21.3556C151.389 21.7098 151.389 22.0848 151.389 22.4806V26.5118C151.389 27.3973 151.399 28.1733 151.42 28.84C151.441 29.4962 151.472 30.0639 151.514 30.5431C151.555 31.0223 151.602 31.4233 151.654 31.7462C151.706 32.0691 151.764 32.34 151.826 32.5587V32.6212H148.217V32.5587C148.279 32.34 148.337 32.0691 148.389 31.7462C148.451 31.4233 148.498 31.0223 148.529 30.5431C148.571 30.0639 148.602 29.4962 148.623 28.84C148.654 28.1733 148.67 27.3973 148.67 26.5118V22.7306Z" fill="black"/>
</svg>
